<svg xmlns="http://www.w3.org/2000/svg" width="136.43mm" height="247.98mm" viewBox="0 0 386.74 702.95"><path d="M72.4,694c-33.08-6.5-47.84-15.51-47.84-29.18,0-11.79,12.36-17,16.43-18.72,6.89-2.91,16.55-5.62,28.7-8.06,17-3.39,46.16-7.7,92.36-10.08a2.36,2.36,0,0,0,1.88-3.59c-6.7-11.22-18.68-19.75-35.82-25.45a195.37,195.37,0,0,1-86.34-57.56C15.62,511.06,0,469.42,0,430c0-41.89,15-81.07,43.43-113.3,11.56-13.12,18.19-32,18.19-51.9,0-13.31-10.38-30-17.95-42.13C36.89,211.75,32,203.89,32,196.09c.08-14.91,18.68-21.15,34.87-24.93,20.68-4.83,50.34-7.82,85.75-8.65l3.24-.07H156a2.35,2.35,0,0,0,.77-4.55c-.33-.12-.64-.25-1-.39C124.43,143.75,93.79,102.05,92,69.87a2.36,2.36,0,0,1,2.84-2.42,111.32,111.32,0,0,1,35.53,13.94,2.34,2.34,0,0,0,3.43-2.73c-3.73-11.29-5.47-23.13-5.64-43.15a2.36,2.36,0,0,1,3.39-2.13A146.87,146.87,0,0,1,168.2,58.13a2.34,2.34,0,0,0,3.94-1.61c1.05-24.85,9.5-41.8,19.31-55.53a2.34,2.34,0,0,1,1.92-1h0a2.34,2.34,0,0,1,1.92,1c9.81,13.73,18.26,30.68,19.31,55.53a2.34,2.34,0,0,0,3.94,1.61,146.87,146.87,0,0,1,36.67-24.75,2.36,2.36,0,0,1,3.39,2.13c-.17,20-1.92,31.86-5.64,43.15a2.34,2.34,0,0,0,3.43,2.73,111.32,111.32,0,0,1,35.53-13.94,2.35,2.35,0,0,1,2.83,2.42c-1.8,32.18-32.44,73.88-63.86,87.63-.31.14-.63.27-.95.39a2.35,2.35,0,0,0,.77,4.55h.18l3.24.07c35.41.83,65.07,3.82,85.75,8.65,16.19,3.78,34.78,10,34.87,24.93,0,7.8-4.9,15.66-11.68,26.54-7.57,12.16-17.95,28.82-17.95,42.13,0,19.86,6.63,38.78,18.19,51.9,28.41,32.23,43.43,71.41,43.43,113.3,0,39.46-15.62,81.1-41.77,111.38a195.37,195.37,0,0,1-86.34,57.56c-17.14,5.7-29.12,14.23-35.82,25.45a2.36,2.36,0,0,0,1.88,3.59c46.19,2.38,75.41,6.69,92.36,10.08,12.15,2.44,21.81,5.15,28.7,8.06,4.07,1.72,16.43,6.93,16.43,18.72,0,13.67-14.76,22.68-47.85,29.18-29.82,5.87-71.65,9-121,9S102.23,699.85,72.4,694ZM257.64,222.91c-2.14-.65-3.94-.56-5.11.23a2.15,2.15,0,0,1-1.1.28,2.36,2.36,0,0,1-2.35-2.36c0-6.13.37-10.3-4.43-17.83-5.47-8.58-19.84-13.55-27.57-14.58a220.33,220.33,0,0,0-47.43,0c-7.73,1-22.1,6-27.56,14.58-4.8,7.53-4.43,11.7-4.43,17.83a2.36,2.36,0,0,1-2.35,2.36,2.15,2.15,0,0,1-1.1-.28c-1.17-.79-3-.88-5.11-.23-3.79,1.15-4.58,7-4.45,12.67.12,5.13,4,14,10.86,10.94a2.33,2.33,0,0,1,2.22.19,2.31,2.31,0,0,1,1.07,1.82c.53,4.85,0,22.65,21.7,45.91,3.17,3.39,8.72,7.89,12.29,13.88,2.57,4.32,6.29,7.89,9.34,9,2.64,1,6.94,1.39,11.24,1.35s8.59-.38,11.24-1.35c3-1.11,6.77-4.68,9.34-9,3.57-6,9.12-10.49,12.28-13.88,21.73-23.26,21.18-41.06,21.71-45.91a2.28,2.28,0,0,1,1.07-1.82,2.31,2.31,0,0,1,2.21-.19c6.82,3.06,10.74-5.81,10.86-10.94C262.21,229.91,261.42,224.06,257.64,222.91Zm-55.59,124c7.85,1.37,14.09,13.58,28.87,13.58h6.3c2.06,0,2.93-1.09,2.93-3V326.12c0-1.95-.87-3-2.93-3h-6.3c-14.78,0-21,12.21-28.87,13.58-2.18.37-3.69-1.66-8.68-1.66s-6.5,2-8.68,1.66c-7.86-1.36-14.16-13.56-28.87-13.58h-6.3c-2.06,0-2.93,1.09-2.93,3V357.4c0,2,.87,3,2.93,3h6.3c14.8,0,21-12.21,28.87-13.58,2.18-.38,3.69,1.66,8.68,1.66S199.87,346.48,202.05,346.86Zm-2.16,140.67v-113a6.52,6.52,0,0,0-13,0v113a6.52,6.52,0,1,0,13,0ZM314.69,430c0-34.06-16.38-65.9-44.95-87.36A6.52,6.52,0,1,0,261.91,353c25.26,19,39.74,47,39.74,76.94,0,54.8-48.57,99.38-108.28,99.38S85.08,484.76,85.08,430c0-29.92,14.49-58,39.75-76.94A6.52,6.52,0,1,0,117,342.6C88.43,364.06,72.05,395.9,72.05,430c0,62,54.42,112.42,121.32,112.42S314.69,492,314.69,430Z" fill="#fff"/></svg>